<svg fill="#fc5b13" xmlns="http://www.w3.org/2000/svg"  viewBox="0 0 50 50" width="50px" height="50px"><path d="M8.5 4A4.5 4.5 0 108.5 13 4.5 4.5 0 108.5 4zM19.5 4A4.5 4.5 0 1019.5 13 4.5 4.5 0 1019.5 4zM30.5 4A4.5 4.5 0 1030.5 13 4.5 4.5 0 1030.5 4zM41.5 4A4.5 4.5 0 1041.5 13 4.5 4.5 0 1041.5 4zM8.5 15A4.5 4.5 0 108.5 24 4.5 4.5 0 108.5 15zM19.5 15A4.5 4.5 0 1019.5 24 4.5 4.5 0 1019.5 15zM30.5 15A4.5 4.5 0 1030.5 24 4.5 4.5 0 1030.5 15zM41.5 15A4.5 4.5 0 1041.5 24 4.5 4.5 0 1041.5 15zM8.5 26A4.5 4.5 0 108.5 35 4.5 4.5 0 108.5 26zM19.5 26A4.5 4.5 0 1019.5 35 4.5 4.5 0 1019.5 26zM30.5 26A4.5 4.5 0 1030.5 35 4.5 4.5 0 1030.5 26zM41.5 26A4.5 4.5 0 1041.5 35 4.5 4.5 0 1041.5 26zM8.5 37A4.5 4.5 0 108.5 46 4.5 4.5 0 108.5 37zM19.5 37A4.5 4.5 0 1019.5 46 4.5 4.5 0 1019.5 37zM30.5 37A4.5 4.5 0 1030.5 46 4.5 4.5 0 1030.5 37zM41.5 37A4.5 4.5 0 1041.5 46 4.5 4.5 0 1041.5 37z"/></svg>